<svg xmlns="http://www.w3.org/2000/svg" viewBox="0 0 200 36" fill="none">
  <!-- Flame icon -->
  <g transform="translate(0, 2)">
    <path d="M12 32C5.373 32 0 26.627 0 20c0-4 2-8 6-12 0 0 2 6 4 6 0-4 2-10 8-14 0 0-2 8 2 12 2-2 4-4 4-4s2 4 2 8c0 6.627-5.373 12-12 12z" fill="#D4863C"/>
    <path d="M8 24c0 2.21 1.79 4 4 4s4-1.79 4-4-1.79-6-4-6-4 3.79-4 6z" fill="#E8A860" opacity="0.8"/>
  </g>
  <!-- Danholmen text -->
  <text x="28" y="26" font-family="'Playfair Display', Georgia, serif" font-size="22" font-weight="700" fill="currentColor">
    Danholmen
  </text>
</svg>
